<?xml version="1.0" encoding="UTF-8" standalone="no"?><!DOCTYPE svg PUBLIC "-//W3C//DTD SVG 1.1//EN" "http://www.w3.org/Graphics/SVG/1.1/DTD/svg11.dtd"><svg width="100%" height="100%" viewBox="0 0 140 29" version="1.1" xmlns="http://www.w3.org/2000/svg" xmlns:xlink="http://www.w3.org/1999/xlink" xml:space="preserve" xmlns:serif="http://www.serif.com/" style="fill-rule:evenodd;clip-rule:evenodd;stroke-linejoin:round;stroke-miterlimit:1.41421;"><g id="Header"><g transform="matrix(1.01802,0,0,1.01802,-240.486,-138.125)"><g transform="matrix(16,0,0,16,282.346,156.388)"><path d="M0.091,-0.708l0.445,0l0,0.09l-0.349,0l0,0.222l0.325,0l0,0.09l-0.325,0l0,0.306l-0.096,0l0,-0.708Z" style="fill:#323e51;fill-rule:nonzero;"/></g><g transform="matrix(16,0,0,16,291.05,156.388)"><path d="M0.141,-0.237c0,0.024 0.004,0.046 0.011,0.067c0.007,0.02 0.018,0.037 0.031,0.052c0.013,0.014 0.03,0.025 0.049,0.034c0.019,0.008 0.041,0.012 0.065,0.012c0.024,0 0.046,-0.004 0.065,-0.012c0.019,-0.009 0.036,-0.02 0.049,-0.035c0.013,-0.014 0.024,-0.031 0.031,-0.052c0.007,-0.02 0.011,-0.042 0.011,-0.066c0,-0.024 -0.004,-0.046 -0.011,-0.066c-0.007,-0.021 -0.018,-0.038 -0.031,-0.052c-0.013,-0.015 -0.03,-0.026 -0.049,-0.034c-0.019,-0.009 -0.041,-0.013 -0.065,-0.013c-0.024,0 -0.046,0.004 -0.065,0.013c-0.019,0.008 -0.036,0.019 -0.049,0.034c-0.013,0.014 -0.024,0.031 -0.031,0.051c-0.007,0.021 -0.011,0.043 -0.011,0.067Zm-0.096,0c0,-0.035 0.006,-0.067 0.019,-0.097c0.013,-0.03 0.031,-0.056 0.054,-0.079c0.023,-0.023 0.049,-0.041 0.08,-0.054c0.031,-0.013 0.064,-0.019 0.099,-0.019c0.035,0 0.068,0.007 0.099,0.019c0.031,0.013 0.057,0.031 0.08,0.054c0.023,0.023 0.041,0.049 0.053,0.079c0.013,0.03 0.02,0.062 0.02,0.097c0,0.035 -0.007,0.067 -0.02,0.097c-0.012,0.031 -0.03,0.057 -0.053,0.079c-0.023,0.023 -0.049,0.04 -0.08,0.053c-0.031,0.013 -0.064,0.02 -0.099,0.02c-0.035,0 -0.068,-0.007 -0.099,-0.02c-0.031,-0.013 -0.057,-0.03 -0.08,-0.053c-0.023,-0.022 -0.041,-0.048 -0.054,-0.079c-0.013,-0.03 -0.019,-0.062 -0.019,-0.097Z" style="fill:#323e51;fill-rule:nonzero;"/></g><g transform="matrix(16,0,0,16,300.074,156.388)"><rect x="0.075" y="-0.756" width="0.09" height="0.756" style="fill:#323e51;fill-rule:nonzero;"/></g><g transform="matrix(16,0,0,16,303.434,156.388)"><rect x="0.075" y="-0.756" width="0.09" height="0.756" style="fill:#323e51;fill-rule:nonzero;"/></g><g transform="matrix(16,0,0,16,306.794,156.388)"><path d="M0.141,-0.237c0,0.024 0.004,0.046 0.011,0.067c0.007,0.02 0.018,0.037 0.031,0.052c0.013,0.014 0.03,0.025 0.049,0.034c0.019,0.008 0.041,0.012 0.065,0.012c0.024,0 0.046,-0.004 0.065,-0.012c0.019,-0.009 0.036,-0.02 0.049,-0.035c0.013,-0.014 0.024,-0.031 0.031,-0.052c0.007,-0.02 0.011,-0.042 0.011,-0.066c0,-0.024 -0.004,-0.046 -0.011,-0.066c-0.007,-0.021 -0.018,-0.038 -0.031,-0.052c-0.013,-0.015 -0.03,-0.026 -0.049,-0.034c-0.019,-0.009 -0.041,-0.013 -0.065,-0.013c-0.024,0 -0.046,0.004 -0.065,0.013c-0.019,0.008 -0.036,0.019 -0.049,0.034c-0.013,0.014 -0.024,0.031 -0.031,0.051c-0.007,0.021 -0.011,0.043 -0.011,0.067Zm-0.096,0c0,-0.035 0.006,-0.067 0.019,-0.097c0.013,-0.03 0.031,-0.056 0.054,-0.079c0.023,-0.023 0.049,-0.041 0.08,-0.054c0.031,-0.013 0.064,-0.019 0.099,-0.019c0.035,0 0.068,0.007 0.099,0.019c0.031,0.013 0.057,0.031 0.08,0.054c0.023,0.023 0.041,0.049 0.053,0.079c0.013,0.03 0.02,0.062 0.02,0.097c0,0.035 -0.007,0.067 -0.02,0.097c-0.012,0.031 -0.03,0.057 -0.053,0.079c-0.023,0.023 -0.049,0.04 -0.08,0.053c-0.031,0.013 -0.064,0.02 -0.099,0.02c-0.035,0 -0.068,-0.007 -0.099,-0.02c-0.031,-0.013 -0.057,-0.03 -0.08,-0.053c-0.023,-0.022 -0.041,-0.048 -0.054,-0.079c-0.013,-0.03 -0.019,-0.062 -0.019,-0.097Z" style="fill:#323e51;fill-rule:nonzero;"/></g><g transform="matrix(16,0,0,16,315.818,156.388)"><path d="M0.011,-0.474l0.101,0l0.107,0.354l0.002,0l0.113,-0.354l0.095,0l0.12,0.354l0.002,0l0.102,-0.354l0.095,0l-0.153,0.474l-0.091,0l-0.125,-0.354l-0.002,0l-0.113,0.354l-0.097,0l-0.156,-0.474Z" style="fill:#323e51;fill-rule:nonzero;"/></g><g transform="matrix(16,0,0,16,327.482,156.388)"><path d="M0.314,-0.708l0.068,0l0.298,0.708l-0.074,0l-0.077,-0.188l-0.375,0l-0.08,0.188l-0.069,0l0.309,-0.708Zm0.031,0.072l-0.165,0.388l0.325,0l-0.16,-0.388Z" style="fill:#323e51;fill-opacity:0.63;fill-rule:nonzero;"/></g><g transform="matrix(16,0,0,16,337.962,156.388)"><rect x="0.09" y="-0.756" width="0.06" height="0.756" style="fill:#323e51;fill-opacity:0.63;fill-rule:nonzero;"/></g><g transform="matrix(16,0,0,16,341.322,156.388)"><path d="M0.054,-0.231c0,-0.035 0.006,-0.068 0.018,-0.098c0.012,-0.029 0.029,-0.055 0.05,-0.077c0.021,-0.021 0.047,-0.038 0.077,-0.05c0.03,-0.012 0.063,-0.018 0.098,-0.018c0.035,0 0.068,0.006 0.097,0.018c0.03,0.012 0.056,0.029 0.078,0.05c0.021,0.022 0.038,0.048 0.05,0.078c0.012,0.029 0.018,0.062 0.018,0.097c0,0.035 -0.006,0.068 -0.018,0.098c-0.012,0.029 -0.029,0.055 -0.05,0.077c-0.022,0.021 -0.048,0.038 -0.078,0.05c-0.029,0.012 -0.062,0.018 -0.097,0.018c-0.035,0 -0.068,-0.006 -0.098,-0.018c-0.03,-0.012 -0.056,-0.029 -0.077,-0.05c-0.021,-0.022 -0.038,-0.048 -0.05,-0.078c-0.012,-0.029 -0.018,-0.062 -0.018,-0.097Zm0.06,0c0,0.026 0.004,0.051 0.012,0.074c0.009,0.023 0.021,0.043 0.037,0.06c0.016,0.017 0.035,0.03 0.058,0.04c0.023,0.01 0.048,0.015 0.076,0.015c0.028,0 0.053,-0.005 0.076,-0.015c0.023,-0.01 0.042,-0.023 0.058,-0.04c0.016,-0.017 0.028,-0.037 0.036,-0.06c0.009,-0.023 0.013,-0.048 0.013,-0.074c0,-0.026 -0.004,-0.05 -0.013,-0.073c-0.008,-0.023 -0.02,-0.043 -0.036,-0.06c-0.016,-0.017 -0.035,-0.031 -0.058,-0.041c-0.023,-0.01 -0.048,-0.015 -0.076,-0.015c-0.028,0 -0.053,0.005 -0.076,0.015c-0.023,0.01 -0.042,0.024 -0.058,0.041c-0.016,0.017 -0.028,0.037 -0.037,0.06c-0.008,0.023 -0.012,0.047 -0.012,0.073Z" style="fill:#323e51;fill-opacity:0.63;fill-rule:nonzero;"/></g><g transform="matrix(16,0,0,16,350.346,156.388)"><path d="M0.08,-0.332c0,-0.009 0,-0.019 -0.001,-0.031c-0.001,-0.013 -0.001,-0.025 -0.002,-0.038c0,-0.013 0,-0.025 -0.001,-0.036c-0.001,-0.011 -0.001,-0.019 -0.001,-0.025l0.06,0c0.001,0.017 0.001,0.034 0.002,0.05c0,0.016 0.001,0.026 0.002,0.031l0.003,0c0.012,-0.025 0.032,-0.047 0.06,-0.066c0.028,-0.018 0.061,-0.027 0.098,-0.027c0.036,0 0.065,0.006 0.088,0.017c0.023,0.011 0.04,0.026 0.053,0.044c0.014,0.019 0.023,0.04 0.028,0.064c0.005,0.024 0.007,0.049 0.007,0.074l0,0.275l-0.06,0l0,-0.272c0,-0.019 -0.002,-0.037 -0.005,-0.054c-0.003,-0.018 -0.009,-0.034 -0.018,-0.048c-0.008,-0.014 -0.02,-0.025 -0.035,-0.034c-0.015,-0.008 -0.034,-0.012 -0.058,-0.012c-0.022,0 -0.043,0.004 -0.062,0.012c-0.02,0.007 -0.037,0.019 -0.051,0.035c-0.015,0.015 -0.026,0.035 -0.035,0.058c-0.008,0.024 -0.012,0.052 -0.012,0.084l0,0.231l-0.06,0l0,-0.332Z" style="fill:#323e51;fill-opacity:0.63;fill-rule:nonzero;"/></g><g transform="matrix(16,0,0,16,358.762,156.388)"><path d="M0.544,-0.03c0,0.057 -0.008,0.104 -0.025,0.139c-0.017,0.035 -0.037,0.063 -0.063,0.082c-0.025,0.019 -0.051,0.032 -0.08,0.039c-0.029,0.007 -0.055,0.01 -0.078,0.01c-0.023,0 -0.046,-0.002 -0.068,-0.007c-0.023,-0.004 -0.044,-0.01 -0.064,-0.019c-0.02,-0.008 -0.038,-0.018 -0.054,-0.03c-0.017,-0.012 -0.031,-0.026 -0.043,-0.041l0.047,-0.044c0.021,0.03 0.048,0.052 0.08,0.066c0.032,0.014 0.066,0.021 0.102,0.021c0.031,0 0.057,-0.004 0.078,-0.012c0.021,-0.008 0.038,-0.019 0.051,-0.032c0.014,-0.013 0.025,-0.027 0.033,-0.043c0.007,-0.015 0.013,-0.031 0.017,-0.047c0.003,-0.015 0.005,-0.03 0.006,-0.044c0.001,-0.014 0.001,-0.025 0.001,-0.034l0,-0.064l-0.002,0c-0.017,0.028 -0.041,0.05 -0.07,0.066c-0.03,0.016 -0.065,0.024 -0.105,0.024c-0.034,0 -0.066,-0.006 -0.096,-0.019c-0.03,-0.012 -0.056,-0.029 -0.078,-0.051c-0.023,-0.021 -0.04,-0.046 -0.054,-0.075c-0.013,-0.029 -0.019,-0.059 -0.019,-0.092c0,-0.033 0.006,-0.063 0.019,-0.092c0.013,-0.029 0.031,-0.054 0.053,-0.075c0.023,-0.021 0.049,-0.038 0.079,-0.051c0.03,-0.013 0.062,-0.019 0.096,-0.019c0.04,0 0.075,0.008 0.104,0.024c0.03,0.016 0.054,0.038 0.071,0.066l0.002,0l0,-0.078l0.06,0l0,0.432Zm-0.058,-0.207c0,-0.025 -0.005,-0.049 -0.015,-0.072c-0.009,-0.022 -0.022,-0.041 -0.039,-0.057c-0.016,-0.017 -0.035,-0.03 -0.058,-0.04c-0.022,-0.009 -0.046,-0.014 -0.071,-0.014c-0.025,0 -0.049,0.005 -0.072,0.014c-0.022,0.01 -0.041,0.023 -0.058,0.039c-0.016,0.017 -0.029,0.036 -0.039,0.058c-0.009,0.023 -0.014,0.047 -0.014,0.072c0,0.025 0.005,0.049 0.014,0.071c0.01,0.023 0.023,0.042 0.039,0.058c0.017,0.017 0.036,0.03 0.058,0.039c0.023,0.01 0.047,0.015 0.072,0.015c0.025,0 0.049,-0.005 0.071,-0.015c0.023,-0.009 0.042,-0.022 0.058,-0.039c0.017,-0.016 0.03,-0.035 0.039,-0.058c0.01,-0.022 0.015,-0.046 0.015,-0.071Z" style="fill:#323e51;fill-opacity:0.63;fill-rule:nonzero;"/></g></g><g><g><path d="M18.073,14.165l5.048,4.078l0,1.985l-0.008,0.009l0,2.921l-1.777,0l0,-4.08l-3.263,-2.637l-3.264,2.637l0,4.08l-1.777,0l0,-2.921l-0.007,-0.009l0,-1.985l5.048,-4.078c0,0 0,0 0,0Z" style="fill:#0a8adb;fill-opacity:0.33;"/><path d="M18.073,9.629l8.619,6.962l0,1.986l-0.008,0.009l0,4.572l-1.777,0l0,-5.732l-6.834,-5.521l-6.835,5.521l0,5.732l-1.777,0l0,-4.572l-0.007,-0.009l0,-1.986l8.619,-6.962c0,0 0,0 0,0Z" style="fill:#0a8adb;fill-opacity:0.67;"/><path d="M18.073,5.067l1.839,1.486l-0.003,0.004l10.323,8.339l0,1.986l-0.008,0.009l0,6.267l-1.776,0l0,-7.426l-10.375,-8.381l-10.375,8.381l0,7.426l-1.777,0l0,-6.267l-0.008,-0.009l0,-1.986l10.324,-8.339l-0.004,-0.004l1.84,-1.486c0,0 0,0 0,0Z" style="fill:#0a8adb;"/></g></g></g></svg>