<?xml version="1.0" encoding="UTF-8" standalone="no"?><!DOCTYPE svg PUBLIC "-//W3C//DTD SVG 1.1//EN" "http://www.w3.org/Graphics/SVG/1.1/DTD/svg11.dtd"><svg width="100%" height="100%" viewBox="0 0 2642 450" version="1.1" xmlns="http://www.w3.org/2000/svg" xmlns:xlink="http://www.w3.org/1999/xlink" xml:space="preserve" xmlns:serif="http://www.serif.com/" style="fill-rule:evenodd;clip-rule:evenodd;stroke-linejoin:round;stroke-miterlimit:2;"><rect id="Artboard1" x="-171.251" y="-203.817" width="3200" height="842.61" style="fill:none;"/><clipPath id="_clip1"><rect id="Artboard11" serif:id="Artboard1" x="-171.251" y="-203.817" width="3200" height="842.61"/></clipPath><g clip-path="url(#_clip1)"><path d="M3053.66,658.898c241.522,-0 437.607,-196.085 437.607,-437.607c-0,-241.522 -196.085,-437.608 -437.607,-437.608l-3146.88,0c-241.522,0 -437.608,196.086 -437.608,437.608c0,241.522 196.086,437.607 437.608,437.607l3146.88,-0Z" style="fill:#005b7c;"/><g transform="matrix(32.0343,0,0,32.0343,-4294.22,-2746.57)"><text x="150.156px" y="96.816px" style="font-family:'OpenSans-Semibold', 'Open Sans', sans-serif;font-weight:600;font-size:12px;fill:#fff;fill-opacity:0.9;">F<tspan x="156.117px 163.021px 165.94px 168.86px 175.523px " y="96.816px 96.816px 96.816px 96.816px 96.816px ">ollow</tspan></text><g transform="matrix(12,0,0,12,216.611,96.8158)"></g><text x="188.017px" y="96.816px" style="font-family:'OpenSans-Light', 'Open Sans', sans-serif;font-weight:300;font-size:12px;fill:#fff;fill-opacity:0.9;">A<tspan x="194.792px 197.079px 203.684px 210.336px " y="96.816px 96.816px 96.816px 96.816px ">long</tspan></text></g><g><path d="M181.888,414.751c19.346,19.346 50.758,19.346 70.104,0c19.345,-19.345 19.345,-50.758 -0,-70.103l-163.713,-163.713c-19.345,-19.346 -50.758,-19.346 -70.103,-0c-19.346,19.346 -19.346,50.758 -0,70.104l163.712,163.712Z" style="fill:#fff;"/><path d="M218.863,288.715l-70.104,-70.104l33.062,-33.062c19.346,-19.345 50.758,-19.345 70.104,0c19.345,19.346 19.345,50.758 -0,70.104l-33.062,33.062Z" style="fill:#ffb81d;fill-opacity:0.66;"/><path d="M135.294,205.145l-36.122,-36.121c-13.405,-13.405 -31.178,-19.808 -48.755,-19.209l131.432,-131.432c19.346,-19.346 50.758,-19.346 70.104,-0c19.345,19.345 19.345,50.758 -0,70.103l-116.659,116.659Z" style="fill:#ffb81d;"/></g></g></svg>
