<?xml version="1.0" standalone="no"?>
<!DOCTYPE svg PUBLIC "-//W3C//DTD SVG 20010904//EN"
 "http://www.w3.org/TR/2001/REC-SVG-20010904/DTD/svg10.dtd">
<svg version="1.0" xmlns="http://www.w3.org/2000/svg"
 width="700.000000pt" height="700.000000pt" viewBox="0 0 700.000000 700.000000"
 preserveAspectRatio="xMidYMid meet">
<metadata>
Created by potrace 1.14, written by Peter Selinger 2001-2017
</metadata>
<g transform="translate(0.000000,700.000000) scale(0.100000,-0.100000)"
fill="#000000" stroke="none">
<path d="M20 3510 l0 -3480 3478 2 3477 3 0 3475 0 3475 -3477 3 -3478 2 0
-3480z m4295 2493 c95 -23 173 -70 255 -153 122 -121 173 -244 173 -415 0
-105 -19 -179 -71 -280 -32 -64 -99 -134 -758 -795 l-723 -725 -228 226 c-125
124 -253 245 -283 268 -113 89 -267 148 -415 159 l-86 7 813 811 c748 745 819
813 883 846 153 78 277 92 440 51z m-1914 -1945 c37 -14 88 -37 115 -52 33
-19 389 -369 1090 -1070 1011 -1010 1043 -1043 1078 -1116 63 -129 80 -260 51
-394 -69 -324 -398 -528 -719 -446 -166 42 -101 -16 -1247 1129 -972 972
-1048 1051 -1082 1117 -88 171 -89 369 -5 543 45 92 169 215 261 259 103 50
166 62 287 58 79 -3 121 -10 171 -28z"/>
</g>
</svg>
