<svg xmlns="http://www.w3.org/2000/svg" viewBox="0 0 29 29" width="29" height="29">
  <path d="M14.323,14.165l5.048,4.078l0,1.985l-0.008,0.009l0,2.921l-1.777,0l0,-4.08l-3.263,-2.637l-3.264,2.637l0,4.08l-1.777,0l0,-2.921l-0.007,-0.009l0,-1.985l5.048,-4.078Z" fill="#fff" fill-opacity="0.4"/>
  <path d="M14.323,9.629l8.619,6.962l0,1.986l-0.008,0.009l0,4.572l-1.777,0l0,-5.732l-6.834,-5.521l-6.835,5.521l0,5.732l-1.777,0l0,-4.572l-0.007,-0.009l0,-1.986l8.619,-6.962Z" fill="#fff" fill-opacity="0.69"/>
  <path d="M14.323,5.067l1.839,1.486l-0.003,0.004l10.323,8.339l0,1.986l-0.008,0.009l0,6.267l-1.776,0l0,-7.426l-10.375,-8.381l-10.375,8.381l0,7.426l-1.777,0l0,-6.267l-0.008,-0.009l0,-1.986l10.324,-8.339l-0.004,-0.004l1.84,-1.486Z" fill="#fff"/>
</svg>
