<?xml version="1.0" encoding="UTF-8" standalone="no"?><!DOCTYPE svg PUBLIC "-//W3C//DTD SVG 1.1//EN" "http://www.w3.org/Graphics/SVG/1.1/DTD/svg11.dtd"><svg width="100%" height="100%" viewBox="0 0 122 132" version="1.1" xmlns="http://www.w3.org/2000/svg" xmlns:xlink="http://www.w3.org/1999/xlink" xml:space="preserve" xmlns:serif="http://www.serif.com/" style="fill-rule:evenodd;clip-rule:evenodd;stroke-linejoin:round;stroke-miterlimit:2;"><rect id="logo-icon" x="0" y="2.886" width="119.556" height="125.848" style="fill:none;"/><g><path d="M12.003,52.202c4.735,-23.248 25.316,-40.766 49.956,-40.766c28.138,0 50.982,22.845 50.982,50.982c0,28.138 -22.844,50.982 -50.982,50.982c-24.64,0 -45.221,-17.518 -49.956,-40.766l6.974,0c4.615,19.46 22.119,33.955 42.982,33.955c24.379,0 44.171,-19.792 44.171,-44.171c0,-24.379 -19.792,-44.171 -44.171,-44.171c-20.863,0 -38.367,14.496 -42.982,33.955l-6.974,0Zm16.671,0c4.369,-14.234 17.627,-24.595 33.285,-24.595c19.213,0 34.811,15.598 34.811,34.811c0,19.213 -15.598,34.811 -34.811,34.811c-15.658,0 -28.916,-10.361 -33.285,-24.595l7.453,0c4.075,10.281 14.11,17.558 25.832,17.558c15.329,0 27.774,-12.445 27.774,-27.774c0,-15.329 -12.445,-27.774 -27.774,-27.774c-11.722,0 -21.757,7.278 -25.832,17.558l-7.453,0Z" style="fill:#fff;fill-opacity:0.4;"/><path d="M54.15,59.013l-3.101,-15.473l31.675,18.878l-31.675,18.878l3.101,-15.472l-48.291,-0l0,-6.811l48.291,-0Z" style="fill:#fff;"/></g></svg>